<svg xmlns="http://www.w3.org/2000/svg" xmlns:xlink="http://www.w3.org/1999/xlink" viewBox="0 0 3632.82 3132.57"><defs><style>.cls-1{fill:url(#linear-gradient);}.cls-2{fill:url(#radial-gradient);}.cls-3{fill:url(#linear-gradient-2);}.cls-4{fill:url(#linear-gradient-3);}.cls-5{fill:url(#linear-gradient-4);}.cls-6{fill:url(#linear-gradient-5);}</style><linearGradient id="linear-gradient" x1="1662.7" y1="-5.27" x2="2759.91" y2="2307.94" gradientTransform="translate(-43.42 464.49)" gradientUnits="userSpaceOnUse"><stop offset="0" stop-color="#d11d21"/><stop offset="0.14" stop-color="#dc3517"/><stop offset="0.34" stop-color="#e74e0d"/><stop offset="0.54" stop-color="#ef6006"/><stop offset="0.76" stop-color="#f36b01"/><stop offset="1" stop-color="#f56e00"/></linearGradient><radialGradient id="radial-gradient" cx="175.76" cy="809.98" r="2741.27" gradientTransform="translate(-43.42 464.49)" gradientUnits="userSpaceOnUse"><stop offset="0" stop-color="#c62a19"/><stop offset="0.23" stop-color="#d14315"/><stop offset="0.72" stop-color="#ed830a"/><stop offset="1" stop-color="#feaa03"/></radialGradient><linearGradient id="linear-gradient-2" x1="-42.18" y1="2086.78" x2="1931.63" y2="967.52" gradientTransform="translate(-43.42 464.49)" gradientUnits="userSpaceOnUse"><stop offset="0" stop-color="#fe7e03"/><stop offset="0.31" stop-color="#fe7f03"/><stop offset="0.53" stop-color="#fe8304"/><stop offset="0.74" stop-color="#fe8e09"/><stop offset="0.96" stop-color="#fda210"/><stop offset="1" stop-color="#fda712"/></linearGradient><linearGradient id="linear-gradient-3" x1="1895.03" y1="-522.32" x2="1388.36" y2="924.31" gradientTransform="translate(-43.42 464.49)" gradientUnits="userSpaceOnUse"><stop offset="0" stop-color="#fa4a01"/><stop offset="0.15" stop-color="#fa5904"/><stop offset="0.72" stop-color="#fc910e"/><stop offset="1" stop-color="#fda712"/><stop offset="1" stop-color="#fe900d"/><stop offset="1" stop-color="#ff7d09"/></linearGradient><linearGradient id="linear-gradient-4" x1="1124.02" y1="945.28" x2="776.59" y2="1260.38" gradientTransform="translate(-43.42 464.49)" gradientUnits="userSpaceOnUse"><stop offset="0" stop-color="#db5412"/><stop offset="0.27" stop-color="#de5812"/><stop offset="0.53" stop-color="#e56412"/><stop offset="0.8" stop-color="#f27811"/><stop offset="1" stop-color="#ff8c11"/></linearGradient><linearGradient id="linear-gradient-5" x1="426.02" y1="2332.91" x2="979.52" y2="1511.3" gradientTransform="translate(-43.42 464.49)" gradientUnits="userSpaceOnUse"><stop offset="0" stop-color="#bd4910"/><stop offset="0.17" stop-color="#ca5610"/><stop offset="0.71" stop-color="#f07d11"/><stop offset="1" stop-color="#ff8c11"/></linearGradient></defs><g id="Layer_2" data-name="Layer 2"><g id="Layer_1-2" data-name="Layer 1"><path class="cls-1" d="M2742.12,2081.73l-109.41-234.81-51.89-111.14-38.92-83.46-93-199.35-7.78-16.87L2252.6,1032.63l-.44-1.3L2114.65,736.41l-16-34.16-1.3-2.6c-47.57-74.38-147-96-221.41-48a148.2,148.2,0,0,0-45.84,45.41l-20.76,44.53-135.79,291L1607,1175.34v.43l122,260.33,1.73,3.9q7.78,6.46,15.56,13c74.39,61.41,137.52,128,188.55,199.35a817.75,817.75,0,0,1,52.76,83.46c61,108.54,93.84,224.87,93.84,346a574.74,574.74,0,0,1-7.35,94.71l239.14,512.45.43.86,1.3,3.47,19,40.21c99,196.33,294.06,336,523.68,357.63a597.87,597.87,0,0,0,62.71,3A650.21,650.21,0,0,0,3188,3037Z"/><path class="cls-2" d="M3632.82,1031.2A655.87,655.87,0,0,1,3463.66,1436c-120.09,132.82-293.56,216.17-486.94,216.17H1212.88c-26.49-6-811.51-619.77-811.51-619.77l95.66,1.85a3,3,0,0,0-2.66,0c-25.05-.82-51.12-1.85-76.58-1.23a145.38,145.38,0,0,0-16.42-.62H983Z"/><path class="cls-3" d="M2081.35,2081.73a574.74,574.74,0,0,1-7.35,94.71c-25.52,183.36-127.14,353.31-285,497.31-12.54,11.25-25.52,22.49-38.49,33.3-6.92,6.06-13.84,11.68-21.19,17.3-11.25,9.51-22.92,18.59-34.6,27.24-5.62,4.33-11.24,8.65-17.29,13-29.84,22.06-61,42.82-93.41,62.71a184.07,184.07,0,0,1-17.3,10.38,60.51,60.51,0,0,1-12.11,7.35c-9.08,6.05-18.59,11.25-28.11,16.43-7.78,4.33-15.13,8.65-22.92,12.54q-20.1,11.67-41.51,22.06c-18.6,9.94-38.06,19-57.52,28.11-4.75,2.16-9.94,4.32-15.13,6.92s-10.38,4.75-16,7.35L1341,2952.68c-6.06,2.16-13,5.18-19.46,7.78-5.63,2.17-11.68,4.76-17.3,6.92-5.62,2.59-11.68,4.76-17.73,6.92-11.68,4.75-23.35,9.08-35,13.41l-36.32,13c-11.68,4.32-23.79,8.22-36.33,12.11-6.49,2.16-13.41,4.32-19.89,6.48-10.81,3.46-21.63,6.92-32.87,9.95-11.24,3.46-22.48,6.49-33.73,10-14.27,4.32-28.54,8.21-43.24,11.68-13,3.45-25.95,6.91-38.92,9.94-13,3.46-26.38,6.48-39.79,9.08-10.38,2.6-20.75,4.76-31.13,6.92-11.25,2.59-22.49,5.19-34.17,6.92-18.16,3.89-36.75,7.35-55.35,10.38-48,8.65-97.3,15.56-147,21.19C604.55,3127,503.36,3132.57,400,3132.57c-9.51,0-19.46,0-29.41-.43-9.51-.43-19-.43-29-1.3v.87C224.44,3129.55,109.84,3119.6,0,3102.3l3.46-8.21h.43l9.52-21.19L19,3061.22l157.41-337.74,106.81-229.19,55.35-118.06a255.33,255.33,0,0,0-6.48,172.11,263.39,263.39,0,0,0,20.75,48.44A250.28,250.28,0,0,0,400,2656.89c36.76,35.46,82.6,58,131.46,67a253.08,253.08,0,0,0,60.11,3.45,161.18,161.18,0,0,0,20.33-2.15c10.38-1.3,20.32-2.6,30.7-4.33,93.84-13.84,182.92-35.46,265.09-64,3.46-1.3,6.92-2.17,10.38-3.89,307.46-108.55,518.06-311.37,532.34-546.18,0-8.21.43-16.87.43-25.09a98.14,98.14,0,0,0-.43-11.23v-.44c0-7.35,0-14.7-.44-22a1035.89,1035.89,0,0,0-78.7-366.71v-.44c-3.9-9.51-8.22-19-12.55-28.54a14.52,14.52,0,0,0-2.59-5.19c-3.46-7.35-6.92-15.13-10.38-22.48a229.56,229.56,0,0,0-10.38-20.76c-3-6.06-6.05-12.11-9.51-18.17-13.4-25.51-28.11-50.16-43.24-73.94-16.87-26-35-51.46-54.06-75.68-19.89-25.51-40.65-49.73-62.7-73.08a1051,1051,0,0,0-260.33-202.39,906.56,906.56,0,0,0-99-47.56c-10.81-4.76-22.06-9.08-33.3-13-13.41-5.62-26.38-10.38-39.79-14.7-10.37-3.46-21.19-6.92-32-10a18.19,18.19,0,0,0-6.48-1.73c-6.92-2.59-13.84-4.32-21.19-6.48l-26-6.49c-18.16-4.33-36.33-8.22-54.92-11.67-9.51-1.74-19-3.47-28.11-4.77-8.65-1.72-17.73-2.59-26.81-3.88-7.78-.87-15.57-2.16-23.35-2.6-11.68-1.73-23.79-2.59-35.46-3.46a2.78,2.78,0,0,0-2.6,0,85.06,85.06,0,0,0-9.94-.87c-5.19-.43-10.81-.86-16-.86-5.18-.43-10.81-.86-16-.86,11.25,0,22.06.43,32.87.86,164.76,3.89,323.47,22.49,472.23,54.06,109.84,23.35,214.92,53.19,313.09,89.94,104.65,38.49,202,83.9,290.6,135.36,65.73,38.49,127.14,80,182.49,124.11,1.73,1.3,3,2.6,4.76,3.9q7.78,6.46,15.56,13c74.39,61.41,137.52,128,188.55,199.35a817.75,817.75,0,0,1,52.76,83.46C2048.48,1844.32,2081.35,1960.65,2081.35,2081.73Z"/><path class="cls-4" d="M2097.35,699.65c-47.57-74.38-147-96-221.41-48a148.2,148.2,0,0,0-45.84,45.41l-20.76,44.53-135.79,291L1607,1175.34v.43L1543.39,1312c-88.65-51.46-186-96.87-290.6-135.36-98.17-36.75-203.25-66.59-313.09-89.94l25.51-54.06.44-1.3,134.05-288,12.54-26.81,140.55-301L1376.9,149.15l3.89-7.78.43-.87v-.43a266.25,266.25,0,0,1,63.14-79.57,260.16,260.16,0,0,1,39.78-27.67c95.58-53.63,210.6-39.36,289.74,26.81,20.76,16.86,38.49,37.19,53.62,61l.44,1.3,25.94,54.92v.86l.44,1.3,109,232.22v.44Z"/><path class="cls-5" d="M1449.85,2047.92a1035.94,1035.94,0,0,0-78.7-366.71v-.43a1043.17,1043.17,0,0,0-205.41-317.84,1046.38,1046.38,0,0,0-731.26-331.26c-11.25-.43-22.49-.43-34.17-.43l-.43,1.3L230.36,1396.23,211.77,1436,111,1652.24c61.4,0,121.51,2.16,181.19,6.49,36.33,2.15,72.22,5.18,107.68,9.51a2375.69,2375.69,0,0,1,250,39.78c110.27,23.36,214.92,53.63,313.09,90.38,104.65,38.49,201.95,83.9,290.6,135.36A1448.72,1448.72,0,0,1,1450.28,2070C1450.28,2062.63,1450.28,2055.28,1449.85,2047.92Z"/><path class="cls-6" d="M821.08,2102.41c-4.76-6.92-10-13.83-15.14-20.75a657.36,657.36,0,0,0-237.41-198.93l-93,198.93-75.68,162.59-51,109-9.51,20.32a6.07,6.07,0,0,0-.87,2.6A255.33,255.33,0,0,0,332,2548.26a263.68,263.68,0,0,0,20.75,48.44,250.42,250.42,0,0,0,47.14,60.1c36.76,35.46,82.6,57.95,131.46,67a252.55,252.55,0,0,0,60.11,3.47,163.1,163.1,0,0,0,20.33-2.17c10.37-1.3,20.32-2.6,30.7-4.33,93.84-13.83,182.92-35.46,265.09-64,17.73-58.81,26.81-121.08,26.81-185.52A655,655,0,0,0,821.08,2102.41Z"/></g></g></svg>